<svg width="229" height="229" viewBox="0 0 229 229" fill="none" xmlns="http://www.w3.org/2000/svg">
<path d="M185.385 10.2114C174.002 10.2114 164.775 19.4388 164.775 30.8213C164.775 42.2038 174.002 51.4312 185.385 51.4312C196.767 51.4312 205.995 42.2038 205.995 30.8213C205.995 19.4388 196.767 10.2114 185.385 10.2114ZM185.385 46.2543C176.875 46.2543 169.952 39.3308 169.952 30.8213C169.952 22.3118 176.875 15.3887 185.385 15.3887C193.894 15.3887 200.818 22.3118 200.818 30.8213C200.818 39.3308 193.894 46.2543 185.385 46.2543Z" fill="#2C9942"/>
<path d="M199.265 37.5233C197.963 40.2077 195.912 42.4544 193.378 43.9979C210.14 62.7309 220.348 87.4438 220.348 114.499C220.348 172.864 172.865 220.347 114.5 220.347C56.135 220.347 8.65146 172.864 8.65146 114.499C8.65146 56.135 56.135 8.65187 114.5 8.65187C135.291 8.65187 154.698 14.6812 171.073 25.0776C172.19 22.3028 174.089 19.9304 176.499 18.2255C158.63 6.6949 137.348 0 114.5 0C51.2635 0 0 51.2635 0 114.5C0 177.737 51.2635 229 114.5 229C177.737 229 229 177.737 229 114.5C229 84.8629 217.74 57.856 199.265 37.5233Z" fill="#2C9942"/>
<path d="M54.3154 154.846V136.61H56.5216V154.846H54.3154Z" fill="#2C9942"/>
<path d="M58.6877 138.018C58.6877 137.604 58.8379 137.244 59.1391 136.939C59.4403 136.634 59.8026 136.481 60.2251 136.481C60.6554 136.481 61.0194 136.63 61.3164 136.927C61.6139 137.225 61.7625 137.588 61.7625 138.018C61.7625 138.441 61.6114 138.799 61.3111 139.092C61.009 139.386 60.6476 139.532 60.2251 139.532C59.8104 139.532 59.4506 139.382 59.1453 139.081C58.8404 138.78 58.6877 138.425 58.6877 138.018ZM59.0517 154.846V142.231H61.3284V154.846H59.0517Z" fill="#2C9942"/>
<path d="M68.8341 138.582H68.7285C67.9932 138.582 67.4977 138.714 67.2443 138.98C66.9893 139.247 66.8627 139.841 66.8627 140.764V142.231H68.8341V144.109H66.8627V154.846H64.5744V144.109H62.6731V142.231H64.5744V140.858C64.5744 139.325 64.9028 138.221 65.5601 137.548C66.2174 136.875 67.3046 136.52 68.8225 136.481L68.8341 138.582Z" fill="#2C9942"/>
<path d="M71.4581 149.272C71.5287 150.43 71.9801 151.369 72.814 152.089C73.6462 152.808 74.6971 153.169 75.9646 153.169C76.7782 153.169 77.537 152.997 78.2413 152.652C78.9452 152.308 79.591 151.8 80.1777 151.127L81.7856 152.418C80.9798 153.357 80.0972 154.049 79.1387 154.495C78.1803 154.941 77.0992 155.164 75.8944 155.164C74.9009 155.164 73.9738 154.984 73.1131 154.624C72.2524 154.264 71.513 153.752 70.8953 153.087C70.3557 152.5 69.941 151.822 69.6513 151.051C69.3617 150.28 69.2173 149.472 69.2173 148.627C69.2173 146.625 69.816 145.005 71.0129 143.769C72.2099 142.533 73.7745 141.915 75.7071 141.915C77.6785 141.915 79.2724 142.574 80.4896 143.892C81.7056 145.211 82.3141 146.949 82.3141 149.108V149.272H71.4581ZM71.4462 147.488H79.8369C79.6962 146.416 79.2423 145.548 78.4757 144.883C77.7091 144.218 76.7778 143.885 75.6828 143.885C74.5721 143.885 73.6189 144.224 72.8247 144.901C72.0308 145.578 71.5716 146.44 71.4462 147.488Z" fill="#2C9942"/>
<path d="M90.7883 151.173C90.8432 151.885 91.066 152.416 91.4572 152.764C91.8483 153.112 92.4194 153.286 93.1703 153.286C93.8977 153.286 94.477 153.104 94.9069 152.74C95.3373 152.376 95.5522 151.893 95.5522 151.291C95.5522 150.501 94.7192 149.875 93.0527 149.413C92.8023 149.343 92.6108 149.288 92.4775 149.249C91.1708 148.866 90.2218 148.379 89.6314 147.788C89.0406 147.198 88.746 146.448 88.746 145.541C88.746 144.5 89.1511 143.636 89.9603 142.947C90.7706 142.258 91.7934 141.914 93.0292 141.914C94.3747 141.914 95.4326 142.258 96.2033 142.947C96.9741 143.636 97.3594 144.574 97.3594 145.763V145.857H95.2704C95.2391 145.192 95.0398 144.682 94.6717 144.325C94.3041 143.97 93.7875 143.792 93.1228 143.792C92.4499 143.792 91.9065 143.952 91.4918 144.273C91.0772 144.594 90.87 145.008 90.87 145.517C90.87 145.979 91.0202 146.339 91.3214 146.597C91.6226 146.855 92.3018 147.129 93.358 147.418C93.4207 147.434 93.5144 147.457 93.6398 147.489C95.0951 147.888 96.0379 148.267 96.4678 148.627C96.8668 148.956 97.1696 149.343 97.3768 149.789C97.5839 150.235 97.6883 150.728 97.6883 151.268C97.6883 152.418 97.2753 153.355 96.4505 154.079C95.6244 154.803 94.5393 155.164 93.1934 155.164C91.7538 155.164 90.6365 154.817 89.8427 154.126C89.0484 153.433 88.6362 152.45 88.6049 151.174H90.7883V151.173Z" fill="#2C9942"/>
<path d="M108.022 145.165C107.639 144.727 107.202 144.405 106.713 144.197C106.225 143.99 105.667 143.886 105.042 143.886C103.829 143.886 102.833 144.323 102.056 145.194C101.276 146.067 100.887 147.184 100.887 148.545C100.887 149.906 101.272 151.017 102.043 151.877C102.814 152.738 103.814 153.168 105.042 153.168C105.707 153.168 106.295 153.051 106.808 152.816C107.32 152.582 107.757 152.233 108.117 151.772L109.56 153.427C108.903 154.029 108.212 154.47 107.488 154.747C106.765 155.024 105.949 155.164 105.042 155.164C104.111 155.164 103.25 155.007 102.46 154.694C101.67 154.381 100.986 153.927 100.407 153.333C99.7887 152.707 99.3208 151.989 99.0048 151.179C98.6871 150.37 98.5291 149.492 98.5291 148.545C98.5291 147.599 98.6871 146.718 99.0048 145.905C99.3208 145.091 99.7887 144.372 100.407 143.746C100.994 143.143 101.678 142.688 102.46 142.378C103.243 142.07 104.103 141.915 105.042 141.915C105.934 141.915 106.741 142.048 107.465 142.314C108.189 142.581 108.848 142.983 109.442 143.523L108.022 145.165Z" fill="#2C9942"/>
<path d="M110.74 138.018C110.74 137.604 110.89 137.244 111.192 136.939C111.493 136.634 111.855 136.481 112.278 136.481C112.708 136.481 113.072 136.63 113.369 136.927C113.666 137.225 113.815 137.588 113.815 138.018C113.815 138.441 113.664 138.799 113.363 139.092C113.061 139.386 112.7 139.532 112.278 139.532C111.863 139.532 111.503 139.382 111.198 139.081C110.893 138.78 110.74 138.425 110.74 138.018ZM111.104 154.846V142.231H113.381V154.846H111.104Z" fill="#2C9942"/>
<path d="M117.284 149.272C117.355 150.43 117.806 151.369 118.64 152.089C119.472 152.808 120.523 153.169 121.79 153.169C122.604 153.169 123.363 152.997 124.067 152.652C124.772 152.308 125.417 151.8 126.004 151.127L127.611 152.418C126.806 153.357 125.923 154.049 124.965 154.495C124.006 154.941 122.925 155.164 121.72 155.164C120.727 155.164 119.8 154.984 118.939 154.624C118.078 154.264 117.339 153.752 116.721 153.087C116.182 152.5 115.767 151.822 115.477 151.051C115.188 150.28 115.043 149.472 115.043 148.627C115.043 146.625 115.642 145.005 116.839 143.769C118.036 142.533 119.6 141.915 121.533 141.915C123.504 141.915 125.098 142.574 126.316 143.892C127.531 145.211 128.14 146.949 128.14 149.108V149.272H117.284ZM117.272 147.488H125.663C125.522 146.416 125.068 145.548 124.302 144.883C123.535 144.218 122.604 143.885 121.509 143.885C120.398 143.885 119.445 144.224 118.651 144.901C117.856 145.578 117.397 146.44 117.272 147.488Z" fill="#2C9942"/>
<path d="M129.824 154.846V142.231H132.03V143.674C132.585 143.103 133.17 142.679 133.784 142.401C134.398 142.124 135.058 141.984 135.762 141.984C137.209 141.984 138.351 142.477 139.188 143.463C140.025 144.449 140.444 145.806 140.444 147.535V154.846H138.214V147.758C138.214 146.436 137.985 145.468 137.528 144.854C137.07 144.24 136.352 143.932 135.374 143.932C134.263 143.932 133.428 144.259 132.868 144.912C132.309 145.566 132.03 146.545 132.03 147.852V154.846H129.824V154.846Z" fill="#2C9942"/>
<path d="M151.377 145.165C150.993 144.727 150.557 144.405 150.068 144.197C149.579 143.99 149.022 143.886 148.396 143.886C147.183 143.886 146.187 144.323 145.41 145.194C144.631 146.067 144.242 147.184 144.242 148.545C144.242 149.906 144.627 151.017 145.398 151.877C146.168 152.738 147.168 153.168 148.396 153.168C149.062 153.168 149.65 153.051 150.162 152.816C150.675 152.582 151.111 152.233 151.471 151.772L152.914 153.427C152.257 154.029 151.566 154.47 150.843 154.747C150.119 155.024 149.304 155.164 148.396 155.164C147.466 155.164 146.605 155.007 145.815 154.694C145.025 154.381 144.34 153.927 143.761 153.333C143.143 152.707 142.675 151.989 142.359 151.179C142.042 150.37 141.883 149.492 141.883 148.545C141.883 147.599 142.042 146.718 142.359 145.905C142.675 145.091 143.143 144.372 143.761 143.746C144.348 143.143 145.032 142.688 145.815 142.378C146.597 142.07 147.458 141.915 148.396 141.915C149.288 141.915 150.096 142.048 150.819 142.314C151.543 142.581 152.202 142.983 152.797 143.523L151.377 145.165Z" fill="#2C9942"/>
<path d="M155.831 149.272C155.902 150.43 156.353 151.369 157.187 152.089C158.019 152.808 159.07 153.169 160.338 153.169C161.151 153.169 161.91 152.997 162.615 152.652C163.319 152.308 163.964 151.8 164.551 151.127L166.159 152.418C165.353 153.357 164.47 154.049 163.512 154.495C162.553 154.941 161.472 155.164 160.268 155.164C159.274 155.164 158.347 154.984 157.486 154.624C156.626 154.264 155.886 153.752 155.269 153.087C154.729 152.5 154.314 151.822 154.025 151.051C153.735 150.28 153.591 149.472 153.591 148.627C153.591 146.625 154.189 145.005 155.386 143.769C156.583 142.533 158.148 141.915 160.08 141.915C162.052 141.915 163.646 142.574 164.863 143.892C166.079 145.211 166.687 146.949 166.687 149.108V149.272H155.831ZM155.819 147.488H164.21C164.069 146.416 163.616 145.548 162.849 144.883C162.082 144.218 161.151 143.885 160.056 143.885C158.945 143.885 157.992 144.224 157.198 144.901C156.404 145.578 155.945 146.44 155.819 147.488Z" fill="#2C9942"/>
<path d="M169.686 151.173C169.741 151.885 169.963 152.416 170.355 152.764C170.746 153.112 171.317 153.286 172.068 153.286C172.795 153.286 173.375 153.104 173.804 152.74C174.235 152.376 174.45 151.893 174.45 151.291C174.45 150.501 173.617 149.875 171.95 149.413C171.7 149.343 171.508 149.288 171.375 149.249C170.068 148.866 169.119 148.379 168.529 147.788C167.938 147.198 167.643 146.448 167.643 145.541C167.643 144.5 168.049 143.636 168.858 142.947C169.668 142.258 170.691 141.914 171.927 141.914C173.272 141.914 174.33 142.258 175.101 142.947C175.872 143.636 176.257 144.574 176.257 145.763V145.857H174.168C174.137 145.192 173.937 144.682 173.569 144.325C173.202 143.97 172.685 143.792 172.02 143.792C171.347 143.792 170.804 143.952 170.389 144.273C169.975 144.594 169.768 145.008 169.768 145.517C169.768 145.979 169.918 146.339 170.219 146.597C170.52 146.855 171.199 147.129 172.256 147.418C172.318 147.434 172.412 147.457 172.537 147.489C173.993 147.888 174.935 148.267 175.365 148.627C175.764 148.956 176.067 149.343 176.274 149.789C176.481 150.235 176.586 150.728 176.586 151.268C176.586 152.418 176.173 153.355 175.348 154.079C174.522 154.803 173.437 155.164 172.091 155.164C170.651 155.164 169.534 154.817 168.74 154.126C167.946 153.433 167.534 152.45 167.502 151.174H169.686V151.173Z" fill="#2C9942"/>
<path d="M188.569 88.5469L188.415 93.3929C187.235 91.5989 185.556 90.1626 183.377 89.0862C181.197 88.0089 178.697 87.4708 175.877 87.4708C169.774 87.4708 164.698 89.7278 160.648 94.2396C159.568 95.4403 158.665 96.6995 157.901 98.0054L161.418 88.5473L152.386 88.5646L145.201 110.092L136.977 90.9883L128.6 110.095L121.618 88.5605L114.423 88.5498V88.5469H105.961L105.808 93.3929C104.627 91.5989 102.949 90.1626 100.77 89.0862C98.5894 88.0089 96.0894 87.4708 93.2701 87.4708C87.1669 87.4708 82.091 89.7278 78.0409 94.2396C76.1958 96.2906 74.8115 98.4948 73.8881 100.853V76.7795H65.4268L65.2733 93.3933C64.0929 91.5993 62.414 90.1631 60.235 89.0866C58.0548 88.0093 55.5549 87.4712 52.7356 87.4712C46.6323 87.4712 41.5565 89.7282 37.5064 94.24C33.8144 98.3425 31.968 103.06 31.968 108.393C31.968 113.88 33.7628 118.648 37.3521 122.698C41.2483 127.109 46.2482 129.313 52.351 129.313C55.068 129.313 57.5676 128.788 59.8497 127.737C62.131 126.686 63.9897 125.237 65.4264 123.391V128.237H73.8877V116.176C74.7851 118.525 76.1149 120.7 77.8862 122.698C81.7824 127.109 86.7823 129.313 92.8851 129.313C95.6021 129.313 98.1017 128.788 100.384 127.737C102.665 126.686 104.524 125.237 105.961 123.391V128.237H114.422V93.6954L127.727 129.295L137.034 107.854L146.264 129.295L155.439 104.621C155.222 105.843 155.108 107.099 155.108 108.393C155.108 113.88 156.903 118.648 160.492 122.698C164.388 127.109 169.388 129.313 175.491 129.313C178.208 129.313 180.708 128.788 182.99 127.737C185.271 126.686 187.13 125.237 188.567 123.391V128.237H197.028V88.5477H188.569V88.5469ZM62.0823 117.506C59.6467 119.994 56.7622 121.237 53.4296 121.237C49.9934 121.237 47.0458 119.981 44.5846 117.468C42.1234 114.956 40.8926 111.93 40.8926 108.392C40.8926 104.803 42.1098 101.765 44.5462 99.2766C46.981 96.7903 49.9422 95.5463 53.4296 95.5463C56.8142 95.5463 59.7102 96.8035 62.1215 99.315C64.5311 101.829 65.7359 104.853 65.7359 108.392C65.7359 111.981 64.5179 115.02 62.0823 117.506ZM102.616 117.506C100.181 119.994 97.2963 121.237 93.9637 121.237C90.5275 121.237 87.5799 119.981 85.1187 117.468C82.6575 114.956 81.4267 111.93 81.4267 108.392C81.4267 104.803 82.6439 101.765 85.0803 99.2766C87.5151 96.7903 90.4764 95.5463 93.9637 95.5463C97.3483 95.5463 100.244 96.8035 102.656 99.315C105.065 101.829 106.27 104.853 106.27 108.392C106.27 111.981 105.052 115.02 102.616 117.506ZM185.222 117.506C182.787 119.994 179.902 121.237 176.57 121.237C173.134 121.237 170.186 119.981 167.725 117.468C165.264 114.956 164.033 111.93 164.033 108.392C164.033 104.803 165.25 101.765 167.686 99.2766C170.121 96.7903 173.082 95.5463 176.57 95.5463C179.954 95.5463 182.85 96.8035 185.262 99.315C187.671 101.829 188.876 104.853 188.876 108.392C188.876 111.981 187.658 115.02 185.222 117.506Z" fill="#2C9942"/>
</svg>